/* XPM */
static char *yi_lambda_fat_32[] = {
/* columns rows colors chars-per-pixel */
"32 32 163 2 ",
"   c #000200020003",
".  c #00700075009D",
"X  c #00D700E0012C",
"o  c #011C0128018E",
"O  c #017D018C0214",
"+  c #01B401C50261",
"@  c #0219022F02EE",
"#  c #02F703160425",
"$  c #03B403DB052E",
"%  c #0438046405E6",
"&  c #04F8052C06F2",
"*  c #05AC05E807EE",
"=  c #06280669089B",
"-  c #066706AA08F2",
";  c #06BB07010968",
":  c #06EE073709B0",
">  c #07D308250AEF",
",  c #086008B80BB5",
"<  c #08BE091A0C38",
"1  c #0B7F0BF81011",
"2  c #0CA70D2B11AF",
"3  c #0D5D0DE912AE",
"4  c #0DEF0E81137A",
"5  c #0E760F0D1436",
"6  c #0FA6104A15DF",
"7  c #102110CA168B",
"8  c #10C21172176C",
"9  c #114C1202182D",
"0  c #135E14291B11",
"q  c #1458152D1C6E",
"w  c #150315DF1D5E",
"e  c #156116411DCE",
"r  c #16DE17CD1FF6",
"t  c #1788187E20E3",
"y  c #18A119A3226D",
"u  c #18F919FE22E6",
"i  c #19941AA023C0",
"p  c #1A621B7724E0",
"a  c #1AA31BBB253B",
"s  c #1B211C3E25EB",
"d  c #1BFE1D23271F",
"f  c #1D491E7C28EE",
"g  c #1E731FB32A8F",
"h  c #1F0020452B55",
"j  c #1F8A20D42C15",
"k  c #1FF621452CAC",
"l  c #20DE22362DEF",
"z  c #220E23732F99",
"x  c #23A5251B31D3",
"c  c #265D27EF359E",
"v  c #284029E63843",
"b  c #29DD2B943A83",
"n  c #2D122EEA3EFE",
"m  c #2EAA30934138",
"M  c #2F4531344210",
"N  c #3090328D43E0",
"B  c #30C032BF4423",
"V  c #313E334244DA",
"C  c #3356357047C0",
"Z  c #349E36C6498B",
"A  c #355737864A8D",
"S  c #36DE391E4CB0",
"D  c #375A399E4D5D",
"F  c #38EF3B444F93",
"G  c #3A883CED51CE",
"H  c #3BD63E4953A1",
"J  c #3CF93F785539",
"K  c #3E3B40C756FA",
"L  c #3F2041B5583C",
"P  c #40A343495A58",
"I  c #4543481960CE",
"U  c #4555482B60E7",
"Y  c #45FA48D861CE",
"T  c #46A7498B62BF",
"R  c #46E249C96312",
"E  c #48694B606534",
"W  c #48E04BDC65DB",
"Q  c #498D4C9066CD",
"!  c #49FF4D06676C",
"~  c #4AC04DCF6879",
"^  c #4BA94EC269C0",
"/  c #4F1552526E87",
"(  c #4FC453086F7C",
")  c #54ED586776B2",
"_  c #55A8592977B7",
"`  c #56C75A547949",
"'  c #574F5AE27A08",
"]  c #59E65D937D8A",
"[  c #5A275DD87E01",
"{  c #5AA25E587EAD",
"}  c #5B105ECA7F46",
"|  c #5BDE5FA08066",
" . c #5CAE60798188",
".. c #5DA7617D82E6",
"X. c #5E6F624C83FC",
"o. c #606C645F86C4",
"O. c #613A653487E3",
"+. c #677A6BB790A0",
"@. c #67EE6C2F9142",
"#. c #6BEB705696D5",
"$. c #6E2872AB99F7",
"%. c #6F9174239BF0",
"&. c #703774CF9CD6",
"*. c #716B76109E86",
"=. c #727A77299FFF",
"-. c #7289773AA023",
";. c #73B37870A1B5",
":. c #73F878B7A216",
">. c #756B7A39A41C",
",. c #76A67B81A5D4",
"<. c #78CB7DBCA8D4",
"1. c #79997E93A9F4",
"2. c #7AE37FE9ABB0",
"3. c #7B108019AC00",
"4. c #7E7483A1B0BC",
"5. c #808A85CDB3A8",
"6. c #8153869EB4C1",
"7. c #83AD8911B80A",
"8. c #86628BE2BBD2",
"9. c #87518CDBBCF9",
"0. c #87B28D40BD7C",
"q. c #890A8EA6BF88",
"w. c #8A71901BC17E",
"e. c #8B4790FAC2A9",
"r. c #8F399516C82D",
"t. c #90859670C9FD",
"y. c #928F988FCCD7",
"u. c #92F098F4CD5E",
"i. c #9372997BCE14",
"p. c #96549C7BD21B",
"a. c #96F49D22D2FC",
"s. c #97B19DE7D403",
"d. c #98A79EE7D55B",
"f. c #993E9F84D62E",
"g. c #9BC1A221D9B0",
"h. c #9BF9A25CD9FF",
"j. c #9C97A300DADC",
"k. c #9DF0A467DCBE",
"l. c #9EF6A577DE2C",
"z. c #9F36A5BBDE94",
"x. c #A081A713E055",
"c. c #A092A724E06C",
"v. c #A0E3A779E0DD",
"b. c #A1BAA858E209",
"n. c #A209A8ABE278",
"m. c #A3F1AAA7E522",
"M. c #A4B5AB73E635",
"N. c #A527ABE9E6D3",
"B. c #A62DACFAE842",
"V. c #A79CAE79EA43",
"C. c #A8C4AFACEBE0",
"Z. c #A986B077ECF0",
"A. c #ABAEB2B6EFF4",
"S. c #AC17B323F086",
"D. c #AC6DB37CF0FA",
"F. c #ACD4B3E7F18E",
"G. c #ADEBB50AF314",
"H. c #AEB5B5DCF42B",
"J. c #AF09B634F4A5",
"K. c #AF17B642F4B7",
"L. c #AF55B682F50E",
"P. c #B09EB7D2F591",
"I. c None",
/* pixels */
"I.I.I.I.I.I.I.I.A.A.A.A.A.I.I.I.I.I.I.I.I.I.I.I.I.I.I.I.I.I.I.I.",
"I.I.I.I.I.I.A.A.D.D.H.H.A.A.I.I.I.    I.I.I.I.I.I.I.I.I.I.I.I.I.",
"I.I.I.I.I.A.A.A.D.p.} 4.N.D.A.I.I.    I.I.I.I.I.I.I.I.I.I.I.I.I.",
"I.I.I.A.A.A.A.I.I.p.m : P v.H...    I.I.I.I.I.I.I.I.I.I.I.I.I.I.",
"I.I.I.A.I.I.I.I.I.I.I.C 4 e.v.R I.I.I.I.I.I.I.I.I.I.I.I.I.I.I.I.",
"I.I.I.I.I.I.I.I.I.I.I.I.=.v.k.6.D       I.I.I.I.I.I.I.I.I.I.I.I.",
"I.I.I.I.I.I.I.I.I.I.I.I.o.! v 9 >       I.I.I.I.I.I.I.I.I.I.I.I.",
"I.I.I.I.I.I.I.I.            9 o.7.I.I.I.I.I.I.I.I.I.I.I.I.I.I.I.",
"I.I.I.I.I.I.I.I.I.I.I.I.I.# 9 2.=.H I.I.I.I.I.I.I.I.I.I.I.I.I.I.",
"I.I.I.I.I.I.I.I.I.I.I.I.I.  $ p l m s I.I.I.I.I.I.I.I.I.I.I.I.I.",
"I.I.I.I.I.I.I.I.I.I.        p 8.v.A.I.I.I.I.I.I.I.I.I.I.I.I.I.I.",
"I.I.I.I.I.I.I.I.I.I.I.I.I.w v r.2.` m   I.I.I.I.I.I.I.I.I.I.I.I.",
"I.I.I.I.I.I.I.I.I.I.I.I.w w 4 f 0 0 u 6   I.I.I.I.I.I.I.I.I.I.I.",
"I.I.I.I.I.I.I.        > R X.( ;.y.p.h.f.I.I.I.I.I.I.I.I.I.I.I.I.",
"I.I.I.I.I.I.I.I.I.I.I.I.H.k.c s $.A.D.H.I.      I.I.I.I.I.I.I.I.",
"I.I.I.I.I.I.I.I.I.I.  6 @.D.`   z v.H.H.I.I.      I.I.I.I.I.I.I.",
"I.I.I.I.I.I.I.I.I.  4 Z %.D.I.  h w.2.+.>.I.I.    I.I.I.I.I.I.I.",
"I.I.I.I.I.I.I.      =.D.H.h.I.  - w 4 u E I.I.I.I.I.I.I.I.I.I.I.",
"I.I.I.I.I.I.I.I.I.: H -.! w       P q.h.v.R I.I.I.I.I.I.I.I.I.I.",
"I.I.I.I.I.I.I.I.# ,   f l I.I.I.  D H.L.8.4   I.I.I.I.I.I.I.I.I.",
"I.I.I.I.        s Z - } I.I.I.I.  , t.m.F   - I.I.I.I.I.I.I.I.I.",
"I.I.I.I.I.    R h.u.9 w I.  I.I.I.  R ~   x 2.I.I.I.I.I.I.I.I.I.",
"I.I.I.I.I.I.I.P.k.#.4     I.I.I.I.  $ $ A u.H.I.I.I.I.I.I.I.I.I.",
"I.I.I.I.I.I.I.~ l u -   I.I.I.I.I.    u u.L.A.A.I.I.I.I.I.I.I.I.",
"I.I.I.I.I.  $ s } 5.6   I.I.I.        # ( C.S.A.I.I.I.I.I.I.I.I.",
"I.        u ..f.H.0.    I.I.    I.I.I.  - | C.A.H.I.  I.I.I.I.I.",
"I.I.  - E u.x.N.L.I.  I.I.I.I.I.I.I.I.I.  - ) m.L.K   I.I.I.I.I.",
"I.I.I.,.A.H.;.N C     I.I.I.I.I.I.I.I.I.I.  $ m } w   I.I.I.I.I.",
"I.I.I.H.A.A.V.)       I.I.I.I.I.I.I.I.I.I.I.d         I.I.I.I.I.",
"I.I.A.A.A.A.S.m.      I.I.I.I.I.I.I.I.I.I.I.0.L >   - >.L.A.A.A.",
"I.A.A.A.A.A.A.I.I.I.I.I.I.I.I.I.I.I.I.I.I.I.I.B.3.K l 4.H.A.I.I.",
"A.A.A.A.I.I.I.I.I.I.I.I.I.I.I.I.I.I.I.I.I.I.I.I.H.Z.h.V.I.I.I.I."
};
