<?xml version="1.0" encoding="UTF-8" standalone="no"?>
<!-- Created with Inkscape (http://www.inkscape.org/) -->
<svg
   xmlns:dc="http://purl.org/dc/elements/1.1/"
   xmlns:cc="http://web.resource.org/cc/"
   xmlns:rdf="http://www.w3.org/1999/02/22-rdf-syntax-ns#"
   xmlns:svg="http://www.w3.org/2000/svg"
   xmlns="http://www.w3.org/2000/svg"
   xmlns:sodipodi="http://sodipodi.sourceforge.net/DTD/sodipodi-0.dtd"
   xmlns:inkscape="http://www.inkscape.org/namespaces/inkscape"
   width="256"
   height="256"
   id="svg2"
   sodipodi:version="0.32"
   inkscape:version="0.45.1"
   sodipodi:docbase="/home/jp/project/yi/art"
   sodipodi:docname="yi+lambda-fat.svg"
   inkscape:output_extension="org.inkscape.output.svg.inkscape"
   inkscape:export-filename="/home/jp/haskell/repo/yi/art/yi+lambda-fat.png"
   inkscape:export-xdpi="90"
   inkscape:export-ydpi="90"
   version="1.0">
  <defs
     id="defs4" />
  <sodipodi:namedview
     id="base"
     pagecolor="#ffffff"
     bordercolor="#666666"
     borderopacity="1.0"
     gridtolerance="10000"
     guidetolerance="10"
     objecttolerance="10"
     inkscape:pageopacity="0.0"
     inkscape:pageshadow="2"
     inkscape:zoom="1"
     inkscape:cx="288.27285"
     inkscape:cy="118.31968"
     inkscape:document-units="px"
     inkscape:current-layer="layer1"
     inkscape:window-width="836"
     inkscape:window-height="1022"
     inkscape:window-x="23"
     inkscape:window-y="0" />
  <metadata
     id="metadata7">
    <rdf:RDF>
      <cc:Work
         rdf:about="">
        <dc:format>image/svg+xml</dc:format>
        <dc:type
           rdf:resource="http://purl.org/dc/dcmitype/StillImage" />
      </cc:Work>
    </rdf:RDF>
  </metadata>
  <g
     inkscape:label="Layer 1"
     inkscape:groupmode="layer"
     id="layer1"
     transform="translate(-38.68,-33.62108)">
    <path
       style="font-size:526.49438477px;font-style:normal;font-variant:normal;font-weight:normal;font-stretch:normal;text-align:start;line-height:125%;writing-mode:lr-tb;text-anchor:start;fill:#abb2ef;fill-opacity:1;stroke:none;stroke-width:1px;stroke-linecap:butt;stroke-linejoin:miter;stroke-opacity:1;font-family:GentiumAlt"
       d="M 294.68,269.1876 C 282.75057,275.50039 272.88914,280.48416 265.09566,284.13893 C 257.46076,287.79369 250.93949,289.62107 245.53182,289.62108 C 241.39616,289.62107 237.57883,288.9012 234.07981,287.46144 C 230.58039,286.13243 227.1607,283.69592 223.82073,280.1519 C 220.63943,276.60789 217.37879,271.79024 214.03881,265.69895 C 210.69846,259.60769 206.88113,251.79978 202.58681,242.2752 C 198.45119,232.7507 193.75905,221.3434 188.51038,208.05327 C 183.2614,194.65253 177.21729,178.98134 170.37804,161.03964 C 169.10546,157.828 167.83302,154.67161 166.56071,151.57046 C 165.44719,148.46958 164.25427,145.47932 162.98196,142.59967 C 156.93772,153.67486 151.05266,164.63916 145.32678,175.49259 C 139.60067,186.34625 133.87468,197.36592 128.14878,208.55164 C 122.42268,219.73751 116.61716,231.25557 110.73219,243.10583 C 105.00612,254.84543 99.2006,267.1941 93.3156,280.1519 C 90.13444,280.70566 86.39663,281.42554 82.10218,282.31154 C 77.9667,283.08679 73.6722,283.91742 69.21867,284.80343 C 64.76509,285.80018 60.4706,286.68619 56.33518,287.46144 C 52.19971,288.34744 48.70049,289.06732 45.83751,289.62108 L 38.68,284.13893 C 46.47371,277.2724 54.10838,269.40911 61.58401,260.54905 C 69.05959,251.68903 76.29661,242.27524 83.2951,232.30765 C 90.45255,222.34016 97.29193,212.04036 103.81327,201.40823 C 110.33448,190.66552 116.37859,180.08884 121.94561,169.67818 C 127.67152,159.26776 132.92035,149.18947 137.69212,139.44328 C 142.46368,129.69738 146.59911,120.72658 150.09845,112.53088 C 144.84951,101.12375 140.07784,91.98684 135.78345,85.12011 C 131.64791,78.14303 127.75104,72.827 124.09286,69.17202 C 120.59355,65.40672 117.17386,62.97021 113.83378,61.86249 C 110.65259,60.64445 107.39195,60.03532 104.05186,60.0351 C 98.48484,60.03532 92.75884,60.9767 86.87385,62.85924 C 81.1478,64.74222 74.38795,67.78786 66.59426,71.99616 L 60.86826,63.52374 C 68.821,57.87569 75.9785,53.16879 82.34077,49.40304 C 88.86199,45.52701 94.66751,42.426 99.75735,40.09999 C 105.00612,37.77447 109.61872,36.11322 113.59519,35.11622 C 117.73056,34.11971 121.46836,33.62133 124.80861,33.62108 C 128.46679,33.62133 131.88649,34.06433 135.0677,34.95009 C 138.2487,35.72559 141.42982,37.55297 144.61103,40.43225 C 147.95109,43.20125 151.37078,47.29902 154.87012,52.72556 C 158.36922,58.04181 162.34561,65.29597 166.79929,74.48805 C 171.25271,83.5698 176.26295,94.86635 181.83005,108.37774 C 187.5559,121.77871 194.07717,137.94829 201.39389,156.8865 C 207.75594,173.27769 213.80004,188.28438 219.52623,201.90661 C 225.25204,215.529 230.73945,227.21317 235.98848,236.95917 C 241.23711,246.70526 246.24735,254.29167 251.01923,259.71842 C 255.79068,265.03446 260.40329,267.69248 264.85707,267.69246 C 266.76551,267.69248 268.51511,267.6371 270.1059,267.52633 C 271.69622,267.30486 273.44584,266.97261 275.35474,266.52958 C 277.42222,266.0866 279.72852,265.47747 282.27366,264.7022 C 284.97735,263.92696 288.31752,262.9302 292.29416,261.71193 L 294.68,269.1876 L 294.68,269.1876"
       id="text2198" />
    <path
       style="font-size:320.01187134px;font-style:normal;font-variant:normal;font-weight:bold;font-stretch:normal;text-align:start;line-height:125%;writing-mode:lr-tb;text-anchor:start;fill:#000000;fill-opacity:1;stroke:none;stroke-width:1px;stroke-linecap:butt;stroke-linejoin:miter;stroke-opacity:1;font-family:AR PL ZenKai Uni"
       d="M 116.9321,56.73222 C 116.85129,54.95877 117.09346,53.74947 117.6586,53.10429 C 119.51513,52.45955 123.55126,53.30606 129.76699,55.64385 C 137.19335,58.38513 141.26984,61.16653 141.99646,63.98806 C 144.09512,71.00222 143.57043,75.03323 140.42236,76.08111 C 140.01864,76.24253 139.61502,76.32315 139.21153,76.32297 C 137.19335,76.56502 135.13493,75.67819 133.03625,73.6625 C 130.13014,70.59911 125.81148,66.36654 120.08028,60.96479 C 118.38502,59.4332 117.33563,58.02234 116.9321,56.73222 M 175.41559,43.42986 C 174.85039,41.65643 175.53652,40.64866 177.47402,40.40658 C 179.4112,39.92309 181.95396,40.7696 185.1023,42.94613 C 192.69005,47.5417 195.63642,51.16961 193.94142,53.82988 C 193.45692,54.63629 192.48824,55.28125 191.03541,55.76477 L 159.31144,73.42064 C 157.61614,73.58206 156.88964,73.17896 157.13193,72.21133 C 157.29325,71.80842 157.61614,71.28438 158.1006,70.63923 C 166.89922,59.67506 171.78293,53.42698 172.75175,51.895 C 175.01183,48.50915 175.89978,45.68744 175.41559,43.42986 M 158.1006,106.31375 C 158.26192,106.15266 158.58481,106.07204 159.06928,106.07189 C 172.79196,101.23483 181.9136,100.3077 186.43422,103.29048 C 189.42079,104.49995 190.79308,105.83018 190.55107,107.28119 C 189.58224,108.97438 188.3714,109.74027 186.91856,109.57888 C 171.82329,111.51392 161.89443,113.24725 157.13193,114.77889 C 156.48602,119.45501 156.08241,124.73565 155.9211,130.6208 L 179.16919,125.42078 C 188.12923,122.35735 196.56473,123.56664 204.47571,129.0487 C 206.65504,130.66123 207.54299,132.19303 207.13956,133.64406 C 206.81648,134.93412 205.12132,135.74032 202.05403,136.06267 L 201.5697,136.06267 C 166.45525,136.0628 135.86143,140.01319 109.78816,147.91387 C 102.84595,149.60701 97.39718,148.72019 93.44184,145.2534 C 91.26227,143.07677 91.50444,141.74653 94.16834,141.26269 L 144.78138,132.55569 C 145.02343,132.4752 145.2656,132.4752 145.50789,132.55569 C 145.18488,127.15425 145.02343,122.03487 145.02355,117.19751 C 135.33674,119.21315 129.76689,120.26122 128.31398,120.3417 C 122.90548,120.90618 118.86935,120.01936 116.2056,117.68123 C 113.38023,115.74648 113.78384,114.41625 117.41644,113.69052 C 131.78495,111.4333 140.90659,110.06275 144.78138,109.57888 C 144.05477,100.79142 143.69151,96.15575 143.69163,95.67186 L 125.28689,98.57419 C 115.11576,99.70305 107.8911,98.89684 103.61288,96.15559 C 99.6574,93.41466 100.46463,91.68132 106.03456,90.95557 C 124.19703,89.26272 142.88429,85.95728 162.09637,81.03926 C 180.25879,75.23478 191.39849,72.85648 195.51551,73.90435 C 199.79363,75.19447 202.53819,76.68594 203.7492,78.37878 C 204.39481,79.74952 203.9912,80.95882 202.53837,82.00671 C 201.16591,83.21619 195.79787,84.86891 186.43422,86.96486 L 154.58917,93.49511 C 157.97939,95.75265 159.19023,99.78367 158.22169,105.58817 C 158.22156,105.83018 158.18119,106.07204 158.1006,106.31375 M 174.93126,180.32326 C 176.22267,185.64428 180.86421,195.72182 188.85589,210.55591 L 198.17935,200.51867 C 203.66831,194.14973 206.6954,188.42568 207.26064,183.34653 C 207.26046,181.49234 207.98696,180.56521 209.44015,180.56512 C 213.55681,180.56521 217.35077,182.74196 220.82202,187.09538 C 223.32423,190.23965 224.49471,193.02104 224.33346,195.43959 C 224.0911,196.56834 217.06824,202.73578 203.26487,213.94197 C 199.71291,216.84434 197.04906,218.94047 195.27334,220.23035 C 201.89242,228.85676 205.80745,233.7343 207.01847,234.86296 C 219.20739,247.92347 228.773,254.45371 235.71534,254.45371 C 238.05608,254.61495 240.27595,251.47076 242.37494,245.02112 C 246.16869,234.05678 248.46928,228.17149 249.27672,227.36526 C 249.51867,227.04281 249.8012,226.88158 250.12431,226.88154 C 251.17348,227.28467 251.73854,228.53428 251.81949,230.63038 C 253.19155,253.44596 254.68491,267.07079 256.29959,271.50492 C 257.51019,277.14833 255.85539,280.2119 251.33515,280.69564 C 249.96265,280.29252 248.71145,280.05066 247.58155,279.97006 C 223.92965,272.95607 203.18398,255.34054 185.34446,227.12339 C 165.80947,238.73275 151.52159,243.77152 142.48079,242.23972 C 140.94695,241.59478 140.94695,241.03044 142.48079,240.54669 C 154.66977,234.09709 167.14139,226.68002 179.89569,218.29547 C 173.19557,207.41176 167.90826,195.60089 164.03371,182.8628 C 148.37342,186.00707 136.38613,189.31251 128.07181,192.77911 C 128.95966,197.6164 129.64581,203.13889 130.13024,209.3466 C 143.12646,203.46137 150.4722,201.04277 152.1675,202.09077 C 152.32882,202.17145 152.49026,202.29238 152.65183,202.45356 C 152.81315,204.14664 151.80412,205.51719 149.62473,206.5652 C 146.23427,209.30634 141.1084,212.20868 134.24709,215.27221 C 132.39037,216.15907 131.0988,216.84434 130.37241,217.32802 C 131.17953,234.50019 130.08977,248.81029 127.10315,260.25837 C 124.84282,269.04598 121.61392,274.44755 117.41644,276.46307 C 114.83323,277.75299 112.20975,276.94678 109.54599,274.04446 C 104.86401,267.27234 98.72909,260.33899 91.14124,253.2444 C 88.80023,251.06766 88.15446,249.89866 89.20391,249.73741 C 90.09179,249.17309 91.30263,249.2537 92.83642,249.97927 C 105.42906,252.3979 111.96758,253.56689 112.452,253.48626 C 116.81093,249.6165 118.99044,239.29709 118.99053,222.52803 C 98.0026,231.88002 81.29304,240.58702 68.86183,248.64904 C 66.44011,250.18084 64.70458,250.8258 63.65522,250.58393 C 63.49374,250.58393 63.33229,250.54363 63.17089,250.463 C 54.53354,246.19013 49.60948,243.08625 48.39866,241.15134 C 47.83358,240.26454 47.63177,239.17617 47.79324,237.88622 C 47.87394,236.11259 49.12514,235.06454 51.54684,234.74203 L 60.38595,234.13737 C 62.56543,233.7343 64.62386,233.12964 66.56123,232.32341 L 118.62728,213.82104 C 118.38502,207.37145 117.90068,201.60711 117.17427,196.52796 L 95.01593,204.26752 C 84.92555,207.25052 77.01475,206.96835 71.2835,203.42101 C 68.70033,201.64741 67.65095,199.91408 68.13532,198.22099 C 68.29672,197.17299 68.98287,196.4474 70.19374,196.04423 L 106.51889,189.1512 C 109.3441,188.58692 112.25011,187.98228 115.23693,187.33724 C 112.73444,179.51714 111.16036,175.20395 110.51466,174.39767 C 92.10986,180.52489 82.34244,183.58847 81.21237,183.58839 C 80.4051,183.26599 80.32438,182.5404 80.97021,181.41164 C 106.47845,168.83495 119.2326,159.80547 119.2327,154.3232 C 119.31333,153.03337 119.71694,152.14655 120.44354,151.66272 C 125.20606,150.776 131.30061,153.07368 138.72719,158.55576 C 140.98731,160.97447 141.22948,162.70781 139.4537,163.75578 C 138.8078,164.15897 137.83914,164.40083 136.54768,164.48136 C 133.07651,165.20704 126.05365,167.86751 115.4791,172.46277 C 118.95008,174.80085 122.2597,178.83187 125.40797,184.55583 L 161.1277,174.39767 C 157.25289,160.93416 153.62037,152.42872 150.23015,148.88131 C 149.09992,146.22096 149.58425,144.407 151.68316,143.43943 C 153.45893,142.63335 157.6565,143.80235 164.27588,146.94642 C 169.36126,149.44576 172.26727,151.78375 172.99391,153.9604 C 173.31666,155.00857 173.2763,157.5078 172.87283,161.4581 C 172.63052,164.76363 172.67088,167.94813 172.99391,171.01161 C 186.31298,166.49696 195.71714,165.24736 201.20644,167.26277 C 204.19301,168.55278 205.68637,170.28612 205.68655,172.46277 C 205.60565,173.4303 204.19301,174.1962 201.44861,174.76045 L 179.0481,179.35582 L 174.93126,180.32326 M 208.47148,151.17899 C 208.06769,149.08298 208.22913,147.75274 208.95581,147.18828 C 210.6508,146.22096 215.05018,146.46282 222.15395,147.91387 C 231.84045,149.84887 237.69283,152.67058 239.71111,156.37901 C 241.64823,160.81323 242.37474,164.2799 241.89061,166.77904 C 241.08317,169.76209 239.1862,171.05201 236.19967,170.64882 C 234.66574,170.40704 233.01093,169.68147 231.23523,168.47206 C 226.55313,164.84425 220.29714,160.41013 212.46724,155.16971 C 210.28755,153.71864 208.95563,152.38841 208.47148,151.17899"
       id="text2170" />
  </g>
</svg>
